# xmcd
#
# Track frame offsets:
#	150
#	26767
#	52190
#	73590
#	94448
#	111493
#	126486
#	138051
#	156641
#	171221
#	191231
#	210261
#	231866
#	247201
#	272676
#	297855
#	313040
#
# Disc length: 4292 seconds
#
# Revision: 0
# Processed by: cddbd v1.5.2PL0 Copyright (c) Steve Scherf et al.
# Submitted via: EasyCDDAExtractor 12.0.4.1
#
DISCID=1310c211
DTITLE=Sky High - I'll Play The Blues For You
DYEAR=2012
DGENRE=Blues-Rock
TTITLE0=Hallin' And Tumblin'
TTITLE1=Holy Macaroni
TTITLE2=Blue Sky Turning Grey
TTITLE3=Don't Move
TTITLE4=Rivers Run Dry
TTITLE5=Hold That Note
TTITLE6=Freddie's Shuffle
TTITLE7=I'll Play The Blues For You
TTITLE8=Back To The Start
TTITLE9=Rodeo
TTITLE10=Man and Wife
TTITLE11=Sisters and Brothers
TTITLE12=Go On Home
TTITLE13=Gone For Good
TTITLE14=Blues For The Green
TTITLE15=The Supernatural
TTITLE16=Untitled
EXTD=
EXTT0=
EXTT1=
EXTT2=
EXTT3=
EXTT4=
EXTT5=
EXTT6=
EXTT7=
EXTT8=
EXTT9=
EXTT10=
EXTT11=
EXTT12=
EXTT13=
EXTT14=
EXTT15=
EXTT16=
PLAYORDER=
